<?xml version="1.0" encoding="iso-8859-1"?>
<!-- Generator: Adobe Illustrator 17.1.0, SVG Export Plug-In . SVG Version: 6.00 Build 0)  -->
<!DOCTYPE svg PUBLIC "-//W3C//DTD SVG 1.1//EN" "http://www.w3.org/Graphics/SVG/1.1/DTD/svg11.dtd">
<svg version="1.1" id="Capa_1" xmlns="http://www.w3.org/2000/svg" xmlns:xlink="http://www.w3.org/1999/xlink" x="0px" y="0px"
	 viewBox="0 0 455 455" style="enable-background:new 0 0 455 455;" xml:space="preserve">
<g>
	<path d="M309.025,315c4.143,0,7.5-3.357,7.5-7.5v-85.905c20.308-22.659,19.575-57.626-2.196-79.398
		c-1.491-1.49-3.524-2.273-5.646-2.188c-2.105,0.096-4.073,1.073-5.422,2.693L201.519,264.896l-41.166,5.479
		c-20.233,0.281-36.605,16.827-36.605,37.126c0,4.143,3.357,7.5,7.5,7.5h88.889c1.989,0,3.896-0.79,5.304-2.196l76.086-76.086V307.5
		C301.525,311.643,304.883,315,309.025,315z M217.029,300h-76.974c3.079-8.522,11.25-14.63,20.821-14.63
		c0.331,0,0.661-0.021,0.989-0.065l44.532-5.926c1.866-0.248,3.57-1.189,4.774-2.636l97.841-117.508
		c11.149,16.622,9.385,39.396-5.292,54.072L217.029,300z"/>
	<path d="M447.5,60H7.5C3.357,60,0,63.357,0,67.5v320c0,4.143,3.357,7.5,7.5,7.5h440c4.143,0,7.5-3.357,7.5-7.5v-320
		C455,63.357,451.643,60,447.5,60z M440,380H15V75h425V380z"/>
	<path d="M47.5,355h360c4.143,0,7.5-3.357,7.5-7.5v-240c0-4.143-3.357-7.5-7.5-7.5h-360c-4.143,0-7.5,3.357-7.5,7.5v40
		c0,4.143,3.357,7.5,7.5,7.5s7.5-3.357,7.5-7.5V115h345v225H55V177.5c0-4.143-3.357-7.5-7.5-7.5s-7.5,3.357-7.5,7.5v170
		C40,351.643,43.357,355,47.5,355z"/>
</g>
<g>
</g>
<g>
</g>
<g>
</g>
<g>
</g>
<g>
</g>
<g>
</g>
<g>
</g>
<g>
</g>
<g>
</g>
<g>
</g>
<g>
</g>
<g>
</g>
<g>
</g>
<g>
</g>
<g>
</g>
</svg>
